<mxfile host="app.diagrams.net" modified="2021-04-29T12:39:16.224Z" agent="5.0 (Macintosh; Intel Mac OS X 10_15_7) AppleWebKit/605.1.15 (KHTML, like Gecko) Version/14.0.3 Safari/605.1.15" etag="b033jtF5d8J3SUznS7kg" version="14.6.6" type="github" pages="4">
  <diagram id="DwEDk635S8oiC6rSxFGJ" name="beam3">
    <mxGraphModel dx="1298" dy="882" grid="1" gridSize="10" guides="1" tooltips="1" connect="1" arrows="1" fold="1" page="1" pageScale="1" pageWidth="827" pageHeight="1169" math="0" shadow="0">
      <root>
        <mxCell id="0" />
        <mxCell id="1" parent="0" />
        <mxCell id="Xpd5ZV6ijpZ6CFXoG8pn-38" value="" style="verticalLabelPosition=bottom;verticalAlign=top;html=1;shape=mxgraph.basic.cone2;dx=0.5;dy=1;fillColor=#d5e8d4;rotation=180;strokeColor=#82b366;opacity=40;" parent="1" vertex="1">
          <mxGeometry x="595.5999999999999" y="211" width="489.86" height="622.51" as="geometry" />
        </mxCell>
        <mxCell id="Xpd5ZV6ijpZ6CFXoG8pn-39" value="" style="ellipse;whiteSpace=wrap;html=1;rotation=0;fillColor=#d5e8d4;strokeColor=#82b366;" parent="1" vertex="1">
          <mxGeometry x="595" y="79.54999999999993" width="490" height="240.9" as="geometry" />
        </mxCell>
        <mxCell id="Xpd5ZV6ijpZ6CFXoG8pn-47" value="" style="verticalLabelPosition=bottom;verticalAlign=top;html=1;shape=mxgraph.basic.cone2;dx=0.5;dy=1;fillColor=#dae8fc;rotation=195;strokeColor=#6c8ebf;opacity=50;" parent="1" vertex="1">
          <mxGeometry x="878" y="210.99999999999994" width="92.95" height="631.81" as="geometry" />
        </mxCell>
        <mxCell id="Xpd5ZV6ijpZ6CFXoG8pn-59" value="" style="verticalLabelPosition=bottom;verticalAlign=top;html=1;shape=mxgraph.basic.cone2;dx=0.43;dy=1;fillColor=#dae8fc;rotation=194;strokeColor=#6c8ebf;opacity=50;" parent="1" vertex="1">
          <mxGeometry x="873.78" y="135.57" width="95" height="704.88" as="geometry" />
        </mxCell>
        <mxCell id="Xpd5ZV6ijpZ6CFXoG8pn-60" value="" style="verticalLabelPosition=bottom;verticalAlign=top;html=1;shape=mxgraph.basic.cone2;dx=0.47;dy=1;fillColor=#dae8fc;rotation=186;strokeColor=#6c8ebf;opacity=50;" parent="1" vertex="1">
          <mxGeometry x="829.59" y="117.73" width="94" height="712.63" as="geometry" />
        </mxCell>
        <mxCell id="Xpd5ZV6ijpZ6CFXoG8pn-61" value="" style="verticalLabelPosition=bottom;verticalAlign=top;html=1;shape=mxgraph.basic.cone2;dx=0.47;dy=1;fillColor=#dae8fc;rotation=175;strokeColor=#6c8ebf;opacity=50;" parent="1" vertex="1">
          <mxGeometry x="763.39" y="140.57" width="92" height="689.98" as="geometry" />
        </mxCell>
        <mxCell id="Xpd5ZV6ijpZ6CFXoG8pn-62" value="" style="verticalLabelPosition=bottom;verticalAlign=top;html=1;shape=mxgraph.basic.cone2;dx=0.05;dy=0.98;fillColor=#dae8fc;rotation=177;strokeColor=#6c8ebf;opacity=50;" parent="1" vertex="1">
          <mxGeometry x="736.16" y="240.54" width="93.05" height="597.32" as="geometry" />
        </mxCell>
        <mxCell id="Xpd5ZV6ijpZ6CFXoG8pn-63" value="" style="verticalLabelPosition=bottom;verticalAlign=top;html=1;shape=mxgraph.basic.cone2;dx=0.72;dy=1;fillColor=#dae8fc;rotation=163;strokeColor=#6c8ebf;opacity=50;" parent="1" vertex="1">
          <mxGeometry x="711.55" y="140.34" width="94" height="700.55" as="geometry" />
        </mxCell>
        <mxCell id="Xpd5ZV6ijpZ6CFXoG8pn-64" value="" style="verticalLabelPosition=bottom;verticalAlign=top;html=1;shape=mxgraph.basic.cone2;dx=0.29;dy=1;fillColor=#dae8fc;rotation=165;strokeColor=#6c8ebf;opacity=50;" parent="1" vertex="1">
          <mxGeometry x="698.64" y="230.09" width="90.79" height="613.77" as="geometry" />
        </mxCell>
        <mxCell id="Xpd5ZV6ijpZ6CFXoG8pn-48" value="" style="ellipse;whiteSpace=wrap;html=1;rotation=195;fillColor=#dae8fc;strokeColor=#6c8ebf;" parent="1" vertex="1">
          <mxGeometry x="960" y="190.0049999999999" width="93.92" height="54.83" as="geometry" />
        </mxCell>
        <mxCell id="Xpd5ZV6ijpZ6CFXoG8pn-50" value="" style="ellipse;whiteSpace=wrap;html=1;rotation=195;fillColor=#dae8fc;strokeColor=#6c8ebf;" parent="1" vertex="1">
          <mxGeometry x="960" y="117.7549999999999" width="93.92" height="54.83" as="geometry" />
        </mxCell>
        <mxCell id="Xpd5ZV6ijpZ6CFXoG8pn-51" value="" style="ellipse;whiteSpace=wrap;html=1;rotation=189;fillColor=#dae8fc;strokeColor=#6c8ebf;" parent="1" vertex="1">
          <mxGeometry x="866.08" y="90.0049999999999" width="93.92" height="54.83" as="geometry" />
        </mxCell>
        <mxCell id="Xpd5ZV6ijpZ6CFXoG8pn-54" value="" style="ellipse;whiteSpace=wrap;html=1;rotation=179;fillColor=#dae8fc;strokeColor=#6c8ebf;" parent="1" vertex="1">
          <mxGeometry x="720" y="220.00499999999988" width="93.92" height="54.83" as="geometry" />
        </mxCell>
        <mxCell id="Xpd5ZV6ijpZ6CFXoG8pn-55" value="" style="ellipse;whiteSpace=wrap;html=1;rotation=178;fillColor=#dae8fc;strokeColor=#6c8ebf;" parent="1" vertex="1">
          <mxGeometry x="616" y="211.00499999999988" width="93.92" height="54.83" as="geometry" />
        </mxCell>
        <mxCell id="Xpd5ZV6ijpZ6CFXoG8pn-56" value="" style="ellipse;whiteSpace=wrap;html=1;rotation=173;fillColor=#dae8fc;strokeColor=#6c8ebf;" parent="1" vertex="1">
          <mxGeometry x="733" y="117.75499999999988" width="93.92" height="54.83" as="geometry" />
        </mxCell>
        <mxCell id="Xpd5ZV6ijpZ6CFXoG8pn-57" value="" style="ellipse;whiteSpace=wrap;html=1;rotation=162;fillColor=#dae8fc;strokeColor=#6c8ebf;" parent="1" vertex="1">
          <mxGeometry x="610" y="130.00499999999988" width="93.92" height="54.83" as="geometry" />
        </mxCell>
        <mxCell id="Xpd5ZV6ijpZ6CFXoG8pn-35" value="" style="verticalLabelPosition=bottom;verticalAlign=top;html=1;shape=mxgraph.basic.cone2;dx=0.5;dy=1;fillColor=#f8cecc;rotation=-180;strokeColor=#b85450;opacity=50;" parent="1" vertex="1">
          <mxGeometry x="794.01" y="199.99999999999994" width="92.95" height="631.81" as="geometry" />
        </mxCell>
        <mxCell id="Xpd5ZV6ijpZ6CFXoG8pn-36" value="" style="ellipse;whiteSpace=wrap;html=1;rotation=0;fillColor=#f8cecc;strokeColor=#b85450;" parent="1" vertex="1">
          <mxGeometry x="793.04" y="172.58499999999992" width="93.92" height="54.83" as="geometry" />
        </mxCell>
      </root>
    </mxGraphModel>
  </diagram>
  <diagram name="beam4" id="-Anv3nyda6pTFc7EetU3">
    <mxGraphModel dx="1298" dy="882" grid="1" gridSize="10" guides="1" tooltips="1" connect="1" arrows="1" fold="1" page="1" pageScale="1" pageWidth="827" pageHeight="1169" math="0" shadow="0">
      <root>
        <mxCell id="deM_WUa9lWzRRre_w1rT-0" />
        <mxCell id="deM_WUa9lWzRRre_w1rT-1" parent="deM_WUa9lWzRRre_w1rT-0" />
        <mxCell id="deM_WUa9lWzRRre_w1rT-2" value="" style="verticalLabelPosition=bottom;verticalAlign=top;html=1;shape=mxgraph.basic.cone2;dx=0.5;dy=1;fillColor=#d5e8d4;rotation=180;strokeColor=#82b366;opacity=40;" vertex="1" parent="deM_WUa9lWzRRre_w1rT-1">
          <mxGeometry x="595.5999999999999" y="211" width="489.86" height="622.51" as="geometry" />
        </mxCell>
        <mxCell id="deM_WUa9lWzRRre_w1rT-3" value="" style="ellipse;whiteSpace=wrap;html=1;rotation=0;fillColor=#d5e8d4;strokeColor=#82b366;" vertex="1" parent="deM_WUa9lWzRRre_w1rT-1">
          <mxGeometry x="595" y="79.54999999999993" width="490" height="240.9" as="geometry" />
        </mxCell>
        <mxCell id="deM_WUa9lWzRRre_w1rT-4" value="" style="verticalLabelPosition=bottom;verticalAlign=top;html=1;shape=mxgraph.basic.cone2;dx=0.5;dy=1;fillColor=#dae8fc;rotation=195;strokeColor=#6c8ebf;opacity=50;" vertex="1" parent="deM_WUa9lWzRRre_w1rT-1">
          <mxGeometry x="878" y="210.99999999999994" width="92.95" height="631.81" as="geometry" />
        </mxCell>
        <mxCell id="deM_WUa9lWzRRre_w1rT-5" value="" style="verticalLabelPosition=bottom;verticalAlign=top;html=1;shape=mxgraph.basic.cone2;dx=0.43;dy=1;fillColor=#dae8fc;rotation=194;strokeColor=#6c8ebf;opacity=50;" vertex="1" parent="deM_WUa9lWzRRre_w1rT-1">
          <mxGeometry x="873.78" y="135.57" width="95" height="704.88" as="geometry" />
        </mxCell>
        <mxCell id="deM_WUa9lWzRRre_w1rT-6" value="" style="verticalLabelPosition=bottom;verticalAlign=top;html=1;shape=mxgraph.basic.cone2;dx=0.47;dy=1;fillColor=#dae8fc;rotation=186;strokeColor=#6c8ebf;opacity=50;" vertex="1" parent="deM_WUa9lWzRRre_w1rT-1">
          <mxGeometry x="829.59" y="117.73" width="94" height="712.63" as="geometry" />
        </mxCell>
        <mxCell id="deM_WUa9lWzRRre_w1rT-7" value="" style="verticalLabelPosition=bottom;verticalAlign=top;html=1;shape=mxgraph.basic.cone2;dx=0.47;dy=1;fillColor=#dae8fc;rotation=175;strokeColor=#6c8ebf;opacity=50;" vertex="1" parent="deM_WUa9lWzRRre_w1rT-1">
          <mxGeometry x="763.39" y="140.57" width="92" height="689.98" as="geometry" />
        </mxCell>
        <mxCell id="deM_WUa9lWzRRre_w1rT-8" value="" style="verticalLabelPosition=bottom;verticalAlign=top;html=1;shape=mxgraph.basic.cone2;dx=0.05;dy=0.98;fillColor=#dae8fc;rotation=177;strokeColor=#6c8ebf;opacity=50;" vertex="1" parent="deM_WUa9lWzRRre_w1rT-1">
          <mxGeometry x="736.16" y="240.54" width="93.05" height="597.32" as="geometry" />
        </mxCell>
        <mxCell id="deM_WUa9lWzRRre_w1rT-9" value="" style="verticalLabelPosition=bottom;verticalAlign=top;html=1;shape=mxgraph.basic.cone2;dx=0.72;dy=1;fillColor=#dae8fc;rotation=163;strokeColor=#6c8ebf;opacity=50;" vertex="1" parent="deM_WUa9lWzRRre_w1rT-1">
          <mxGeometry x="711.55" y="140.34" width="94" height="700.55" as="geometry" />
        </mxCell>
        <mxCell id="deM_WUa9lWzRRre_w1rT-10" value="" style="verticalLabelPosition=bottom;verticalAlign=top;html=1;shape=mxgraph.basic.cone2;dx=0.29;dy=1;fillColor=#dae8fc;rotation=165;strokeColor=#6c8ebf;opacity=50;" vertex="1" parent="deM_WUa9lWzRRre_w1rT-1">
          <mxGeometry x="698.64" y="230.09" width="90.79" height="613.77" as="geometry" />
        </mxCell>
        <mxCell id="deM_WUa9lWzRRre_w1rT-11" value="" style="ellipse;whiteSpace=wrap;html=1;rotation=195;fillColor=#dae8fc;strokeColor=#6c8ebf;" vertex="1" parent="deM_WUa9lWzRRre_w1rT-1">
          <mxGeometry x="960" y="190.0049999999999" width="93.92" height="54.83" as="geometry" />
        </mxCell>
        <mxCell id="deM_WUa9lWzRRre_w1rT-12" value="" style="ellipse;whiteSpace=wrap;html=1;rotation=195;fillColor=#dae8fc;strokeColor=#6c8ebf;" vertex="1" parent="deM_WUa9lWzRRre_w1rT-1">
          <mxGeometry x="960" y="117.7549999999999" width="93.92" height="54.83" as="geometry" />
        </mxCell>
        <mxCell id="deM_WUa9lWzRRre_w1rT-13" value="" style="ellipse;whiteSpace=wrap;html=1;rotation=189;fillColor=#dae8fc;strokeColor=#6c8ebf;" vertex="1" parent="deM_WUa9lWzRRre_w1rT-1">
          <mxGeometry x="866.08" y="90.0049999999999" width="93.92" height="54.83" as="geometry" />
        </mxCell>
        <mxCell id="deM_WUa9lWzRRre_w1rT-14" value="" style="ellipse;whiteSpace=wrap;html=1;rotation=179;fillColor=#dae8fc;strokeColor=#6c8ebf;" vertex="1" parent="deM_WUa9lWzRRre_w1rT-1">
          <mxGeometry x="720" y="220.00499999999988" width="93.92" height="54.83" as="geometry" />
        </mxCell>
        <mxCell id="deM_WUa9lWzRRre_w1rT-15" value="" style="ellipse;whiteSpace=wrap;html=1;rotation=178;fillColor=#dae8fc;strokeColor=#6c8ebf;" vertex="1" parent="deM_WUa9lWzRRre_w1rT-1">
          <mxGeometry x="616" y="211.00499999999988" width="93.92" height="54.83" as="geometry" />
        </mxCell>
        <mxCell id="deM_WUa9lWzRRre_w1rT-16" value="" style="ellipse;whiteSpace=wrap;html=1;rotation=173;fillColor=#dae8fc;strokeColor=#6c8ebf;" vertex="1" parent="deM_WUa9lWzRRre_w1rT-1">
          <mxGeometry x="733" y="117.75499999999988" width="93.92" height="54.83" as="geometry" />
        </mxCell>
        <mxCell id="deM_WUa9lWzRRre_w1rT-17" value="" style="ellipse;whiteSpace=wrap;html=1;rotation=162;fillColor=#dae8fc;strokeColor=#6c8ebf;" vertex="1" parent="deM_WUa9lWzRRre_w1rT-1">
          <mxGeometry x="610" y="130.00499999999988" width="93.92" height="54.83" as="geometry" />
        </mxCell>
        <mxCell id="deM_WUa9lWzRRre_w1rT-18" value="" style="verticalLabelPosition=bottom;verticalAlign=top;html=1;shape=mxgraph.basic.cone2;dx=0.5;dy=1;fillColor=#dae8fc;rotation=-180;strokeColor=#6c8ebf;opacity=50;" vertex="1" parent="deM_WUa9lWzRRre_w1rT-1">
          <mxGeometry x="794.01" y="199.99999999999994" width="92.95" height="631.81" as="geometry" />
        </mxCell>
        <mxCell id="deM_WUa9lWzRRre_w1rT-19" value="" style="ellipse;whiteSpace=wrap;html=1;rotation=0;fillColor=#dae8fc;strokeColor=#6c8ebf;" vertex="1" parent="deM_WUa9lWzRRre_w1rT-1">
          <mxGeometry x="793.04" y="172.58499999999992" width="93.92" height="54.83" as="geometry" />
        </mxCell>
      </root>
    </mxGraphModel>
  </diagram>
  <diagram name="beam1" id="PaKp4Umdm0J6RZMcWtr2">
    <mxGraphModel dx="1298" dy="882" grid="1" gridSize="10" guides="1" tooltips="1" connect="1" arrows="1" fold="1" page="1" pageScale="1" pageWidth="827" pageHeight="1169" math="0" shadow="0">
      <root>
        <mxCell id="fE8vveDAL5yvn6qJpi8H-0" />
        <mxCell id="fE8vveDAL5yvn6qJpi8H-1" parent="fE8vveDAL5yvn6qJpi8H-0" />
        <mxCell id="fE8vveDAL5yvn6qJpi8H-18" value="" style="verticalLabelPosition=bottom;verticalAlign=top;html=1;shape=mxgraph.basic.cone2;dx=0.5;dy=1;fillColor=#f8cecc;rotation=-180;strokeColor=#b85450;opacity=50;" parent="fE8vveDAL5yvn6qJpi8H-1" vertex="1">
          <mxGeometry x="794.01" y="199.99999999999994" width="92.95" height="631.81" as="geometry" />
        </mxCell>
        <mxCell id="fE8vveDAL5yvn6qJpi8H-19" value="" style="ellipse;whiteSpace=wrap;html=1;rotation=0;fillColor=#f8cecc;strokeColor=#b85450;" parent="fE8vveDAL5yvn6qJpi8H-1" vertex="1">
          <mxGeometry x="793.04" y="172.58499999999992" width="93.92" height="54.83" as="geometry" />
        </mxCell>
      </root>
    </mxGraphModel>
  </diagram>
  <diagram name="beam2" id="TizDXb5k1s3B-wVy0Ca9">
    <mxGraphModel dx="1298" dy="882" grid="1" gridSize="10" guides="1" tooltips="1" connect="1" arrows="1" fold="1" page="1" pageScale="1" pageWidth="827" pageHeight="1169" math="0" shadow="0">
      <root>
        <mxCell id="WfxK5EAMFxi-bGDUVzdW-0" />
        <mxCell id="WfxK5EAMFxi-bGDUVzdW-1" parent="WfxK5EAMFxi-bGDUVzdW-0" />
        <mxCell id="WfxK5EAMFxi-bGDUVzdW-2" value="" style="verticalLabelPosition=bottom;verticalAlign=top;html=1;shape=mxgraph.basic.cone2;dx=0.5;dy=1;fillColor=#d5e8d4;rotation=180;strokeColor=#82b366;opacity=40;" parent="WfxK5EAMFxi-bGDUVzdW-1" vertex="1">
          <mxGeometry x="595.5999999999999" y="211" width="489.86" height="622.51" as="geometry" />
        </mxCell>
        <mxCell id="WfxK5EAMFxi-bGDUVzdW-3" value="" style="ellipse;whiteSpace=wrap;html=1;rotation=0;fillColor=#d5e8d4;strokeColor=#82b366;" parent="WfxK5EAMFxi-bGDUVzdW-1" vertex="1">
          <mxGeometry x="595" y="79.54999999999993" width="490" height="240.9" as="geometry" />
        </mxCell>
        <mxCell id="WfxK5EAMFxi-bGDUVzdW-4" value="" style="verticalLabelPosition=bottom;verticalAlign=top;html=1;shape=mxgraph.basic.cone2;dx=0.5;dy=1;fillColor=#f8cecc;rotation=-180;strokeColor=#b85450;opacity=50;" parent="WfxK5EAMFxi-bGDUVzdW-1" vertex="1">
          <mxGeometry x="794.01" y="199.99999999999994" width="92.95" height="631.81" as="geometry" />
        </mxCell>
        <mxCell id="WfxK5EAMFxi-bGDUVzdW-5" value="" style="ellipse;whiteSpace=wrap;html=1;rotation=0;fillColor=#f8cecc;strokeColor=#b85450;" parent="WfxK5EAMFxi-bGDUVzdW-1" vertex="1">
          <mxGeometry x="793.04" y="172.58499999999992" width="93.92" height="54.83" as="geometry" />
        </mxCell>
      </root>
    </mxGraphModel>
  </diagram>
</mxfile>
